<?xml version="1.0" ?><svg viewBox="0 0 512 512" xmlns="http://www.w3.org/2000/svg"><defs><style>.cls-1{fill:#c0402b;}.cls-2{fill:#202d40;}.cls-3{fill:#bdc3c8;}</style></defs><title/><g id="Google"><g data-name="YT logo" id="YT_logo"><path class="cls-1" d="M483.26,201.43s-2.68-18.8-10.9-27.09c-10.42-10.87-22.11-10.92-27.47-11.56C406.53,160,349,160,349,160h-.12s-57.55,0-95.91,2.76c-5.36.64-17,.69-27.47,11.56-8.22,8.29-10.9,27.09-10.9,27.09a411.27,411.27,0,0,0-2.74,44.17v20.71a411,411,0,0,0,2.74,44.17s2.68,18.81,10.9,27.09c10.43,10.87,24.13,10.53,30.23,11.67,21.93,2.09,93.21,2.74,93.21,2.74s57.61-.09,96-2.85c5.36-.63,17.05-.69,27.47-11.56,8.22-8.28,10.9-27.09,10.9-27.09A411,411,0,0,0,486,266.31V245.6A411.27,411.27,0,0,0,483.26,201.43Z" id="red"/><g id="you"><path class="cls-2" d="M197.69,315.36H180.24V305.27c-6.61,7.58-12.22,11.4-18.33,11.4-5.36,0-9.08-2.52-10.95-7.09-1.13-2.78-1.93-7.12-1.93-13.5V222.63h17.44v75.29c.41,2.58,1.5,3.52,3.72,3.52,3.34,0,6.36-2.9,10.05-8.11v-70.7h17.45Z" id="u"/><path class="cls-2" d="M136.18,252.93c0-9.91-2-17.35-5.51-22C126,224.55,118.73,222,111.38,222c-8.31,0-14.64,2.59-19.28,8.94-3.57,4.68-5.49,12.2-5.49,22.11v33c0,9.85,1.7,16.66,5.27,21.29a24.64,24.64,0,0,0,39.16,0c3.52-4.63,5.15-11.44,5.15-21.29Zm-17.45,34.89c.92,9.18-1.93,13.74-7.35,13.74S103.12,297,104,287.82V251.1c-.92-9.19,1.93-13.49,7.34-13.49s8.28,4.3,7.36,13.49Z" id="o"/><path class="cls-2" d="M67.32,264.87v50.49H49V264.87s-19-61.91-23-73.45H45.28l12.88,48.36L71,191.42H90.27Z" id="y"/></g><g id="tube"><path class="cls-3" d="M463.06,272.21V253.44c0-9.8-1.93-17-5.4-21.62-4.66-6.27-11.28-9.6-19.62-9.6s-15.1,3.33-19.91,9.6c-3.53,4.64-5.59,12.22-5.59,22V286c0,9.74,2.26,16.57,5.79,21.16,4.81,6.27,11.43,9.4,20.12,9.4s15.51-3.29,20.11-9.95a23.63,23.63,0,0,0,3.88-10,104,104,0,0,0,.59-10.81v-2.6H445.58c0,6.67,0,10.63-.12,11.54-.95,4.44-3.34,6.67-7.43,6.67-5.71,0-8.12-4.27-8.06-12.74V272.21ZM430,248.3c0-8.58,2.35-10.92,7.91-10.92s7.7,2.55,7.7,11v10l-15.61,0Z" id="e"/><path class="cls-3" d="M386,222.08c-6.11,0-12.19,3.76-17.56,10.37l0-40.11H351.93v123h16.53l0-9.24C374,313,380.09,316.55,386,316.55c6.62,0,11.46-3.55,13.68-10.37,1.1-3.89,1.83-9.87,1.83-18.36V251.1c0-8.69-1.11-14.64-2.22-18.33C397.07,225.9,392.62,222.08,386,222.08Zm-1.93,66.66c0,9.18-2.17,12.7-7,12.7-2.74,0-5.89-1.41-8.67-4.19l0-55.68c2.78-2.74,5.91-4.19,8.65-4.19,4.79,0,7,2.7,7,11.88Z" id="b"/><path class="cls-3" d="M338.16,315.36H320.72V305.27c-6.62,7.58-12.22,11.4-18.33,11.4-5.36,0-9.09-2.52-10.95-7.09-1.14-2.78-1.94-7.12-1.94-13.5V223.55h17.44v74.37c.41,2.58,1.5,3.52,3.72,3.52,3.34,0,6.37-2.9,10.06-8.11V223.55h17.44Z" data-name="u" id="u-2"/><polygon class="cls-3" id="T" points="272.06 315.36 253.69 315.36 253.69 209.78 234.41 209.78 234.41 192.36 292.25 192.34 292.25 209.78 272.06 209.78 272.06 315.36"/></g></g></g></svg>